<svg width="169" height="177" viewBox="0 0 169 177" fill="none" xmlns="http://www.w3.org/2000/svg">
<path fill-rule="evenodd" clip-rule="evenodd" d="M151.674 108.294C150.698 107.334 149.146 107.349 148.178 108.312C136.575 119.472 124.358 125.149 111.901 125.291C99.7719 125.428 87.5179 120.166 75.4954 109.74C72.823 107.464 68.6922 102.726 65.0585 97.132C68.1074 92.7464 70.1392 87.5529 71.1423 82.5494C72.622 75.1595 71.5446 68.3647 69.106 64.9995C67.7547 63.136 66.0123 61.9941 63.975 61.518C61.3673 60.9124 57.824 61.4527 53.7572 64.9022C48.1464 69.6837 46.7826 76.511 48.4588 84.0248C49.3441 87.9748 51.1314 92.1199 53.3578 96.1034C50.7816 98.1598 47.5765 99.3495 43.6759 98.9212C35.4192 98.0705 29.2283 91.2906 24.8248 83.3137C21.0058 76.4128 16.405 66.2182 17.6212 58.1176C18.0329 55.3648 19.2372 52.9989 16.9652 50.7491C13.4868 47.2682 10.2983 50.8715 9.72751 54.6524C8.50552 62.7747 11.4006 72.5588 14.258 80.0516C19.5018 93.8404 29.3423 106.242 42.6295 107.952C48.8586 108.725 54.1442 107.068 58.4256 103.991C62.4894 109.63 66.8723 114.296 69.7481 116.638C83.9775 127.993 98.2982 133.273 112.154 132.47C125.996 131.675 139.421 124.879 151.692 111.791C152.652 110.814 152.651 109.254 151.674 108.294ZM59.3796 86.1829C58.5155 83.8913 57.9316 81.6399 57.7604 79.499C57.5471 76.7766 58.0723 74.252 60.1941 72.4579C60.5536 72.1585 60.9915 71.7405 61.351 71.4411C61.6215 72.3865 62.0893 74.246 62.0961 75.7841C62.0956 79.2174 61.3151 83.303 59.7486 87.1081C59.6012 86.7893 59.4835 86.4901 59.3796 86.1829Z" fill="#4D2C5E"/>
<path fill-rule="evenodd" clip-rule="evenodd" d="M61.6733 71.1799C61.9164 71.3149 62.1495 71.4006 62.1309 71.2094C62.1022 70.969 61.9407 71.0072 61.6733 71.1799Z" fill="#4D2C5E"/>
<path fill-rule="evenodd" clip-rule="evenodd" d="M144.88 113.724C143.749 116.249 142.657 118.936 141.878 121.497C140.679 125.494 140.164 129.15 141.15 131.812C141.458 133.14 142.797 133.964 144.117 133.643C145.444 133.335 146.269 131.996 145.947 130.677C145.879 130.018 146.109 129.335 146.326 128.567C146.823 126.756 147.935 124.866 149.145 122.827C150.691 120.227 152.551 117.63 154.137 115.227C155.581 113.053 156.785 111.036 157.551 109.437C158.76 106.922 158.826 104.809 158.552 103.572C158.476 103.249 155.794 98.4452 151.208 100.359C149.568 101.048 145.505 103.009 145.304 103.106C142.863 104.443 138.328 106.859 134.009 108.122C132.644 108.525 131.326 108.882 130.126 108.932C130.062 108.822 129.998 108.712 129.921 108.61C128.8 107.018 126.619 106.643 125.019 107.75C124.132 108.281 122.975 109.775 122.665 110.669C122.071 112.407 122.732 113.807 124.355 114.963C126.564 116.533 129.761 116.982 133.355 116.688C137.132 116.361 141.411 115.029 144.88 113.724ZM148.869 105.656C149.137 105.134 149.228 104.751 148.866 104.666C148.462 104.569 148.731 105.259 148.869 105.656Z" fill="#4D2C5E"/>
</svg>
